<?xml version="1.0" standalone="no"?>
<!DOCTYPE svg PUBLIC "-//W3C//DTD SVG 20010904//EN"
 "http://www.w3.org/TR/2001/REC-SVG-20010904/DTD/svg10.dtd">
<svg version="1.0" xmlns="http://www.w3.org/2000/svg"
 width="568.000000pt" height="938.000000pt" viewBox="0 0 568.000000 938.000000"
 preserveAspectRatio="xMidYMid meet">

<g transform="translate(0.000000,938.000000) scale(0.100000,-0.100000)"
fill="#000000" stroke="none">
<path d="M1308 9136 c-123 -33 -236 -155 -318 -344 -115 -265 -117 -535 -8
-899 1 -4 -58 -69 -133 -143 -188 -188 -281 -319 -419 -588 -52 -101 -60 -124
-60 -172 0 -77 29 -116 118 -163 70 -37 70 -37 195 -37 143 0 250 23 409 86
83 32 273 130 305 156 20 16 77 -34 221 -195 l35 -38 -75 -77 c-168 -173 -249
-349 -252 -542 -1 -76 2 -90 27 -133 34 -58 108 -109 192 -133 148 -42 397 11
553 119 37 25 46 27 57 16 24 -26 68 -114 141 -286 40 -95 87 -200 103 -234
l31 -60 -54 -63 c-146 -173 -190 -343 -133 -516 14 -41 25 -65 26 -52 1 12 6
22 12 22 5 0 7 -5 3 -12 -4 -7 -3 -8 5 -4 9 6 9 11 0 22 -7 8 -7 14 -1 14 7 0
7 14 0 43 -5 23 -8 81 -6 129 4 75 9 96 40 160 22 42 64 102 101 143 l64 70
30 -60 31 -60 -37 -41 c-46 -52 -82 -152 -84 -235 -2 -56 0 -64 15 -61 10 2
27 -2 38 -8 19 -10 20 -8 20 44 0 60 31 169 58 203 l17 23 60 -73 c216 -260
503 -296 825 -103 l58 34 32 -39 c77 -97 204 -179 404 -265 85 -36 89 -37 99
-18 19 32 16 42 -12 49 -47 12 -195 78 -248 111 -64 41 -118 89 -183 165 l-51
58 47 35 c26 20 50 36 53 36 3 -1 18 -18 33 -40 32 -46 120 -113 194 -147 30
-13 114 -40 186 -58 l132 -33 48 -68 c70 -98 73 -106 51 -103 -44 5 -109 -15
-133 -42 -40 -43 -49 -56 -43 -62 3 -3 2 -11 -3 -18 -13 -21 -7 -94 9 -125 16
-28 16 -27 11 40 -7 89 15 144 59 153 20 4 25 8 15 14 -15 10 -14 10 70 14 52
2 54 1 83 -42 17 -24 38 -43 48 -43 10 0 24 -7 31 -15 7 -8 9 -15 6 -15 -4 0
1 -12 12 -27 11 -16 28 -46 39 -68 11 -22 34 -65 51 -95 25 -43 28 -57 19 -69
-10 -12 -9 -13 2 -7 19 12 32 -13 18 -35 -6 -10 -15 -15 -21 -12 -5 4 -6 1 -1
-7 6 -10 11 -10 20 3 15 21 25 22 25 3 0 -7 9 -25 20 -39 11 -14 20 -32 20
-41 0 -9 5 -16 10 -16 6 0 10 -5 10 -11 0 -5 -6 -7 -12 -3 -7 4 -10 4 -6 -1 4
-4 3 -15 -2 -25 -6 -12 -5 -17 5 -17 8 0 12 4 9 9 -3 4 -2 13 2 19 4 6 13 -3
22 -22 9 -19 22 -40 29 -47 15 -15 -4 -43 -94 -139 -80 -85 -87 -80 -137 99
-18 64 -40 83 -95 79 -27 -1 -32 1 -27 14 3 9 2 13 -4 10 -5 -3 -12 6 -16 20
-7 30 -24 33 -24 5 0 -23 34 -95 49 -104 16 -10 22 -96 11 -154 -15 -75 -89
-227 -134 -274 -19 -20 -53 -49 -76 -64 -62 -41 -52 -78 26 -100 l49 -13 -67
0 -68 -1 0 -680 0 -680 155 0 155 0 0 280 0 280 70 0 70 0 0 -280 c0 -180 4
-280 10 -280 13 -1 254 -1 278 0 16 0 17 20 14 297 -2 224 -6 311 -17 349 -24
83 -97 162 -180 193 l-44 17 134 244 c74 134 135 248 135 252 0 5 -77 7 -171
6 l-171 -3 -64 -114 -63 -113 -3 120 -3 120 40 7 c22 3 78 24 124 47 100 50
200 142 252 235 l35 62 27 -55 c15 -30 33 -57 41 -60 13 -5 306 143 330 167
11 10 -16 81 -84 219 -58 119 -72 141 -85 136 -43 -18 -49 -17 -25 2 l24 20
-27 39 c-34 48 -64 83 -70 83 -3 0 -8 -20 -11 -45 -6 -37 -15 -51 -48 -77 -23
-18 -76 -66 -119 -106 l-77 -74 -31 54 c-17 29 -31 56 -31 59 0 4 18 -2 40
-13 50 -25 80 -16 112 32 13 19 42 43 65 54 75 34 86 126 27 225 -35 58 -37
60 -57 46 -12 -8 -31 -15 -44 -15 -39 0 -72 -40 -83 -100 -8 -44 -17 -61 -45
-86 -19 -17 -38 -41 -43 -53 -7 -19 -18 -2 -80 115 -40 75 -70 140 -66 143 3
3 12 -3 19 -14 35 -49 60 -60 72 -29 8 23 -33 104 -73 144 -29 28 -37 31 -45
20 -5 -8 -7 -23 -5 -32 7 -28 -10 -30 -22 -3 -7 15 -8 25 -2 25 14 0 12 30 -6
83 -9 26 -13 58 -10 71 8 34 79 109 115 123 36 13 40 4 11 -22 -25 -23 -25
-50 1 -119 24 -65 58 -96 106 -96 19 0 47 -7 62 -14 25 -13 31 -13 50 0 11 8
21 22 21 30 0 9 -22 62 -49 119 -52 109 -70 127 -127 127 -23 0 -32 4 -27 12
4 6 -1 5 -10 -3 -11 -9 -17 -10 -17 -2 0 6 -4 11 -10 11 -5 0 -9 -6 -7 -12 1
-7 -6 -12 -15 -12 -10 1 -15 -3 -11 -9 4 -6 0 -8 -10 -4 -10 4 -16 2 -14 -6 1
-7 -4 -11 -11 -9 -8 1 -11 -2 -8 -6 3 -5 -3 -17 -13 -26 -15 -14 -20 -14 -25
-4 -4 9 -5 9 -4 -2 3 -22 -12 -60 -23 -60 -8 0 -10 6 -13 43 -1 6 -7 18 -13
25 -7 7 -11 26 -9 42 2 16 0 27 -4 25 -5 -3 -17 7 -28 22 l-20 28 -36 -18
c-48 -23 -74 -22 -181 7 -147 40 -293 116 -374 195 l-32 31 26 33 c15 17 56
71 91 118 65 88 72 93 174 125 127 39 198 95 221 174 16 51 3 112 -46 217 -40
87 -42 115 -15 197 32 96 24 158 -40 299 -34 75 -39 140 -16 205 8 23 20 68
27 101 15 78 -6 147 -67 222 -24 30 -44 57 -44 60 0 3 7 28 15 55 8 27 18 77
21 111 6 55 3 69 -20 117 -32 66 -59 90 -185 163 -114 67 -172 123 -195 189
-28 83 -24 97 44 142 57 38 129 62 187 62 15 0 64 -5 110 -12 97 -14 186 -3
259 33 52 25 79 72 71 124 -4 28 0 33 60 70 69 43 154 121 184 170 27 44 25
99 -5 122 -31 25 -148 47 -206 40 -142 -17 -201 -28 -250 -47 -116 -46 -350
-190 -550 -338 -63 -47 -119 -85 -125 -86 -29 -2 -127 29 -134 43 -5 9 -12 43
-16 76 -10 85 -53 125 -134 125 -53 0 -83 -12 -163 -67 -81 -56 -96 -53 -156
22 l-42 55 47 59 c63 78 211 319 247 401 16 36 32 73 37 82 16 31 10 135 -11
191 -22 57 -68 109 -113 126 -46 18 -194 13 -282 -9 -162 -40 -549 -211 -718
-317 l-37 -23 -71 37 c-103 55 -141 92 -196 190 -26 47 -67 108 -91 134 -75
83 -200 123 -304 95z m52 -112 c17 -15 44 -50 60 -78 25 -43 30 -62 30 -121 0
-72 -22 -174 -59 -280 -35 -96 -44 -187 -28 -280 13 -72 13 -81 -2 -92 -9 -7
-22 -10 -29 -8 -7 3 -10 0 -7 -5 7 -11 -89 -62 -99 -53 -3 4 -6 1 -6 -6 0 -8
-7 -10 -19 -6 -13 4 -23 0 -29 -11 -11 -19 -139 -77 -146 -66 -3 5 -19 62 -37
127 -56 213 -43 376 50 601 52 126 120 225 184 269 62 42 95 44 137 9z m1700
-338 c-15 -41 -66 -117 -73 -110 -4 4 -7 -2 -7 -14 0 -49 -19 -25 -46 58 l-30
90 83 0 83 0 -10 -24z m-992 -236 l21 -49 -47 19 c-26 10 -73 29 -105 43 l-59
24 54 42 53 43 31 -36 c17 -20 41 -59 52 -86z m822 -32 c-11 -12 -20 -25 -20
-28 0 -4 -9 -18 -20 -31 -12 -12 -30 -38 -41 -56 -12 -18 -25 -31 -30 -27 -5
3 -8 0 -7 -8 2 -7 -2 -12 -9 -11 -7 2 -10 -3 -7 -11 3 -8 1 -17 -5 -20 -6 -4
-13 3 -16 16 -45 203 -45 192 -2 185 17 -4 57 -2 87 2 94 14 94 14 70 -11z
m-1098 -144 l-5 -132 -103 51 c-57 29 -104 54 -104 58 0 3 30 26 68 51 37 25
85 59 107 76 22 17 40 30 41 29 1 -1 -1 -61 -4 -133z m131 112 c26 -12 44 -26
40 -31 -5 -4 -3 -5 3 -2 7 4 28 1 49 -6 l37 -13 -47 -52 c-26 -29 -52 -49 -57
-45 -6 3 -8 2 -5 -4 8 -12 -40 -56 -53 -48 -6 3 -8 0 -5 -7 2 -7 -7 -21 -20
-31 l-24 -17 3 92 c2 51 4 114 5 141 1 54 5 56 74 23z m577 -58 c0 -31 -349
-364 -555 -530 -38 -31 -97 -78 -130 -105 -136 -110 -367 -273 -549 -386 -76
-47 -295 -152 -416 -200 -145 -57 -254 -86 -348 -94 l-73 -6 21 54 c35 88 89
177 181 299 109 144 153 194 303 347 l119 122 31 -49 c46 -75 80 -77 271 -19
94 29 361 154 396 185 8 8 19 14 23 14 4 0 51 30 104 67 297 205 418 278 502
304 41 12 120 11 120 -3z m2038 -22 c22 -21 -11 -77 -76 -129 -69 -54 -257
-149 -343 -173 -60 -17 -72 -27 -44 -38 18 -7 63 1 128 21 38 12 51 12 62 3
26 -22 16 -40 -32 -63 -45 -20 -61 -22 -225 -19 -156 2 -183 0 -230 -18 -115
-43 -338 -211 -514 -385 -113 -113 -164 -178 -164 -209 0 -18 8 -13 46 27 25
26 47 47 48 47 2 0 39 -42 83 -92 213 -247 343 -480 410 -738 21 -82 25 -125
30 -320 5 -202 3 -237 -16 -343 -66 -366 -224 -625 -447 -737 -153 -76 -313
-89 -428 -37 -168 77 -210 139 -446 662 -73 161 -113 239 -157 307 l-24 36 35
46 c36 47 52 100 43 137 -4 16 -2 19 11 13 51 -21 103 -27 142 -15 53 16 117
73 125 112 6 26 10 30 28 23 12 -5 54 -8 92 -8 59 -1 78 4 117 26 64 38 152
139 193 221 32 63 35 78 35 154 0 97 -15 141 -58 172 -42 29 -45 27 -20 -20
12 -23 21 -54 21 -70 0 -58 -90 -138 -258 -229 -107 -58 -142 -86 -156 -125
-12 -31 -13 -32 -38 -19 -53 28 -90 17 -184 -54 -97 -74 -133 -76 -199 -14
-15 14 -30 23 -34 20 -6 -6 53 -66 106 -108 l31 -25 -58 0 c-32 0 -65 -4 -73
-7 -11 -5 -49 41 -147 180 -128 180 -197 265 -326 400 -33 34 -58 64 -56 66 2
1 33 10 69 20 201 54 469 272 625 506 57 86 166 290 154 290 -4 0 -51 -65
-104 -145 -140 -213 -178 -260 -306 -380 -123 -115 -295 -221 -418 -256 -41
-12 -45 -12 -61 9 -10 12 -22 22 -26 22 -10 0 -44 31 -44 40 0 4 37 29 82 55
261 150 625 428 851 648 33 31 63 57 67 57 16 0 159 -63 248 -110 91 -48 295
-185 325 -218 14 -15 11 -23 -29 -75 -24 -32 -44 -65 -44 -73 0 -29 29 -12 97
59 285 293 559 527 826 705 155 103 263 163 317 177 17 4 12 -2 -15 -16 -42
-23 -150 -127 -141 -136 3 -3 29 12 58 34 81 61 169 109 212 116 l39 6 -49
-31 c-53 -33 -184 -159 -184 -177 0 -20 26 -11 56 20 49 52 152 130 217 165
64 35 115 38 145 10z m-1853 -137 c4 3 5 0 3 -8 -3 -16 -121 -141 -127 -135
-4 3 -30 159 -31 180 0 8 28 1 75 -16 41 -15 77 -25 80 -21z m-1164 -88 c6
-67 9 -124 7 -127 -10 -9 -278 102 -278 115 0 6 253 140 257 137 1 -1 8 -57
14 -125z m239 -13 c0 -6 -2 -9 -5 -6 -3 3 -20 -8 -36 -23 -17 -16 -36 -29 -41
-29 -5 0 -30 -14 -54 -32 -24 -17 -46 -29 -49 -27 -2 3 -7 55 -11 117 l-7 112
101 -50 c56 -28 102 -56 102 -62z m985 52 c-3 -5 0 -7 7 -5 18 7 61 -42 52
-58 -4 -7 -4 -9 0 -6 3 3 24 -11 45 -32 56 -56 97 -51 170 19 27 26 91 52 128
52 63 0 80 -19 82 -89 0 -33 6 -72 11 -86 13 -35 65 -56 126 -49 l49 5 -65
-60 c-35 -33 -69 -57 -75 -54 -5 4 -7 2 -2 -2 4 -5 -3 -19 -15 -32 -21 -22
-45 -32 -34 -14 4 5 1 11 -5 13 -7 2 -1 17 15 35 33 39 33 56 0 82 -33 26 -59
27 -86 1 -31 -28 -34 -18 -10 37 11 26 21 62 22 78 7 100 -13 134 -23 39 -3
-31 -11 -62 -16 -67 -6 -6 -11 -23 -11 -38 0 -15 -5 -31 -10 -34 -6 -4 -8 -11
-4 -16 3 -6 -18 2 -47 17 -42 21 -72 28 -137 32 -95 5 -103 12 -80 71 13 32
13 41 2 56 -30 41 -97 24 -119 -29 -11 -26 -23 -36 -47 -41 -18 -4 -39 -12
-46 -18 -9 -7 -18 -5 -32 8 -19 17 -17 19 63 106 45 49 86 89 90 89 5 0 5 -4
2 -10z m-328 -107 c38 -16 70 -31 71 -36 2 -4 9 -4 15 0 20 12 -15 -29 -62
-72 -24 -22 -56 -52 -71 -67 -15 -16 -29 -28 -31 -28 -2 0 -3 52 -1 115 2 63
5 115 7 115 3 0 35 -12 72 -27z m-1260 -5 c-3 -13 -11 -62 -18 -110 -7 -49
-15 -88 -19 -88 -7 0 -76 143 -82 168 -2 9 17 20 52 32 72 24 73 24 67 -2z
m155 -52 c-3 -5 0 -6 7 -2 6 4 17 3 24 -2 7 -5 37 -17 67 -27 77 -25 77 -26
36 -47 -20 -10 -42 -16 -48 -12 -6 4 -8 3 -5 -3 10 -16 -191 -91 -212 -79 -5
3 -2 40 5 83 8 43 15 92 16 108 1 17 3 33 5 37 2 4 28 -5 57 -20 29 -15 51
-31 48 -36z m1489 44 c18 -10 18 -13 4 -40 -15 -30 -38 -37 -63 -22 -13 9 -8
35 11 60 12 15 22 15 48 2z m-578 -216 l58 -29 -28 -24 c-67 -57 -137 -117
-151 -131 -14 -13 -15 -12 -8 10 3 14 9 45 11 70 9 86 17 145 22 153 3 5 12 2
21 -6 10 -7 43 -27 75 -43z m1004 21 c2 -6 -6 -21 -18 -34 -20 -21 -22 -21
-40 -5 -18 16 -18 18 -2 36 17 19 54 21 60 3z m384 -234 c23 -55 79 -112 134
-138 26 -12 32 -19 23 -26 -9 -6 -8 -7 4 -3 34 10 173 -67 164 -91 -3 -8 -2
-12 3 -9 25 16 74 -95 55 -126 -4 -7 -9 -21 -10 -32 -1 -12 -11 -44 -22 -71
-18 -45 -19 -54 -7 -89 8 -21 30 -55 49 -75 29 -30 34 -39 24 -50 -11 -10 -10
-11 4 -6 18 7 44 -28 33 -45 -3 -6 -2 -10 3 -10 5 0 9 -15 9 -33 0 -31 -2 -33
-36 -33 -92 -1 -133 -33 -58 -45 20 -3 34 -3 32 1 -6 10 46 32 54 24 3 -4 0
-9 -7 -11 -6 -3 -10 -8 -7 -13 3 -4 -3 -28 -13 -52 -42 -98 -41 -108 50 -307
11 -25 25 -69 31 -99 11 -52 10 -56 -21 -115 -18 -34 -32 -74 -32 -88 0 -15
23 -72 50 -127 28 -55 53 -115 56 -134 8 -46 -16 -99 -57 -131 -40 -30 -125
-61 -141 -51 -6 4 -8 3 -5 -3 6 -9 -26 -25 -37 -20 -1 1 -11 -5 -21 -13 -17
-13 -18 -13 -13 0 4 8 17 42 31 75 22 54 32 81 36 95 1 3 10 34 21 70 24 77
36 214 26 293 -11 85 -26 69 -26 -27 0 -111 -4 -120 -38 -99 -15 9 -29 18 -31
20 -3 2 5 13 17 26 l21 22 -24 44 c-23 39 -24 45 -10 64 9 12 18 21 20 20 3
-2 21 -3 40 -3 38 0 49 13 60 72 7 35 5 39 -29 59 -22 13 -36 29 -36 41 0 11
-9 33 -21 49 -16 23 -18 35 -11 61 13 46 9 69 -17 113 -18 31 -23 57 -26 129
-4 111 -25 183 -75 257 -21 32 -36 60 -32 65 4 4 2 4 -4 1 -7 -4 -28 8 -48 26
-26 24 -36 42 -36 63 0 17 -5 35 -10 40 -7 7 3 15 32 23 24 7 46 18 50 25 15
22 8 57 -16 81 l-24 24 -58 -18 c-33 -10 -74 -16 -91 -14 -33 5 -42 16 -23 28
6 3 10 15 10 25 0 23 -78 150 -92 150 -6 0 -4 8 3 18 13 15 12 16 -2 4 -23
-17 -58 0 -86 42 -22 35 -16 56 16 56 8 0 11 3 8 6 -4 4 15 23 41 42 26 20 49
40 50 44 2 5 7 6 11 3 5 -2 17 4 27 14 18 17 19 17 26 -20 4 -20 16 -60 29
-88z m-1737 27 c-4 -6 -3 -8 4 -5 5 4 31 -2 57 -13 26 -11 58 -21 71 -22 13
-1 24 -5 24 -9 0 -14 -142 -109 -152 -103 -7 4 -8 3 -4 -4 6 -10 -31 -39 -38
-30 -6 7 30 198 37 198 5 0 5 -5 1 -12z m-250 -170 c-5 -7 -3 -8 5 -4 7 5 20
1 29 -7 9 -8 39 -26 66 -40 45 -22 48 -25 28 -31 -12 -4 -22 -12 -22 -18 0 -5
-8 -7 -17 -4 -10 4 -14 4 -11 0 4 -4 -14 -21 -40 -38 -26 -17 -48 -29 -49 -26
-1 3 -14 -6 -29 -20 -31 -29 -32 -40 7 108 13 50 27 92 32 92 4 0 5 -5 1 -12z
m-223 -225 c33 -20 56 -39 52 -43 -21 -18 -123 -71 -123 -63 0 4 -4 4 -8 -2
-4 -5 -17 -16 -29 -22 l-22 -12 15 47 c9 26 21 66 27 90 6 23 15 42 20 42 5 0
36 -16 68 -37z m2339 13 c0 -20 -7 -26 -32 -31 -18 -4 -41 -9 -50 -11 -14 -4
-18 1 -18 19 0 18 8 27 33 35 54 17 67 15 67 -12z m-2571 -207 c-8 -5 -22 -6
-33 -3 -12 4 -16 2 -12 -5 6 -10 -46 -38 -88 -46 -10 -3 -24 -9 -32 -16 -12
-10 5 41 46 139 l10 23 61 -42 c45 -30 58 -44 48 -50z m-417 -22 c7 -8 19 -12
26 -9 6 2 12 -1 12 -7 0 -6 6 -11 12 -11 7 0 37 -12 66 -27 l53 -27 -43 -13
c-24 -7 -48 -11 -55 -8 -6 2 -13 -1 -15 -6 -4 -12 -145 -36 -154 -26 -4 4 -2
12 3 19 6 7 13 26 17 41 4 15 11 25 16 22 5 -3 7 0 4 8 -3 8 2 21 10 30 8 8
12 17 9 21 -4 3 1 6 10 6 8 0 22 -6 29 -13z m1049 -338 l18 -26 -39 -32 c-104
-84 -197 -285 -170 -367 30 -89 132 -85 224 10 46 48 83 59 105 32 9 -10 3
-19 -29 -40 -40 -26 -52 -46 -27 -46 7 0 29 11 49 25 20 14 46 25 58 25 11 0
42 11 68 24 56 27 107 42 97 27 -3 -6 -46 -41 -95 -77 -50 -37 -90 -71 -90
-76 0 -30 132 30 204 93 53 47 61 33 17 -29 -40 -54 -110 -106 -206 -152 -101
-49 -177 -69 -286 -77 -110 -7 -209 19 -269 73 -122 110 -44 336 218 636 l67
78 33 -38 c19 -20 42 -49 53 -63z m117 -193 c27 -39 57 -86 67 -105 l17 -34
-29 7 c-100 24 -111 22 -161 -26 -26 -25 -57 -51 -69 -57 -26 -13 -60 -14 -67
-2 -16 26 66 212 125 284 30 36 32 37 50 21 10 -9 40 -48 67 -88z m2092 -218
c0 -7 -3 -24 -7 -36 -5 -21 -10 -23 -42 -17 -60 10 -71 16 -71 34 0 27 9 31
67 31 36 0 53 -4 53 -12z m-83 -313 c14 -10 19 -22 16 -35 -6 -24 -5 -24 -48
-6 -37 16 -42 25 -23 44 16 16 29 15 55 -3z m18 -171 c-15 -49 -28 -90 -29
-92 -2 -2 -7 13 -10 33 -6 29 -3 40 10 49 17 13 16 33 -3 82 -4 12 -3 15 5 10
7 -4 20 -3 29 3 10 5 19 8 21 7 1 -2 -9 -43 -23 -92z m-56 -153 c-8 -10 -41
-54 -73 -97 -33 -44 -78 -103 -99 -132 -89 -119 -286 -265 -443 -329 -96 -39
-214 -53 -289 -35 l-40 10 60 1 c63 1 172 26 239 55 103 43 233 149 298 243
13 18 38 38 56 44 46 15 145 110 189 180 25 41 44 61 62 65 14 3 31 7 36 9 6
2 12 4 14 4 2 1 -3 -7 -10 -18z m490 -2298 c-1 -144 -1 -147 21 -155 13 -5 24
-7 25 -6 1 2 39 72 86 156 l84 152 113 0 114 0 -20 -32 c-28 -47 -252 -457
-252 -461 0 -3 22 -7 48 -11 58 -7 129 -50 167 -99 49 -66 55 -106 55 -394 l0
-264 -97 3 -98 3 -5 262 c-4 215 -8 265 -20 277 -11 11 -42 15 -118 17 l-103
2 -2 -279 -2 -279 -97 -3 -98 -3 0 631 0 630 100 0 101 0 -2 -147z"/>
<path d="M1239 8473 c-21 -50 -24 -73 -23 -174 2 -202 32 -170 34 36 0 59 7
116 15 140 17 47 18 55 6 55 -5 0 -19 -26 -32 -57z"/>
<path d="M1127 8480 c-31 -53 -57 -148 -57 -205 1 -54 24 -148 37 -152 7 -3
11 35 12 114 0 120 12 207 31 244 23 42 2 41 -23 -1z"/>
<path d="M971 7546 c-18 -24 -47 -67 -64 -97 -31 -56 -107 -226 -107 -241 0
-27 23 7 79 120 36 70 81 152 100 182 20 30 40 61 44 68 5 7 3 12 -5 12 -7 -1
-28 -20 -47 -44z"/>
<path d="M824 7474 c-70 -89 -144 -224 -144 -259 1 -19 2 -18 21 5 12 14 53
79 92 145 39 66 81 134 94 151 25 33 28 44 14 44 -6 0 -40 -39 -77 -86z"/>
<path d="M1042 7538 c-17 -22 -42 -88 -62 -169 -23 -89 -23 -89 -11 -89 13 0
111 232 111 262 0 13 -27 9 -38 -4z"/>
<path d="M2423 7379 c-76 -37 -123 -137 -123 -260 0 -150 49 -279 140 -371 40
-40 67 -58 93 -63 70 -13 144 31 180 108 53 111 39 360 -27 483 -58 110 -165
152 -263 103z m162 -51 c36 -31 85 -114 85 -143 0 -12 -5 -11 -32 5 -61 37
-139 18 -205 -52 -43 -44 -64 -99 -66 -167 l-1 -56 -14 45 c-7 25 -18 84 -24
132 -13 105 -3 150 45 205 63 71 152 85 212 31z m-5 -179 c0 -5 5 -7 11 -4 11
7 89 -68 89 -86 0 -5 -14 7 -32 27 -36 41 -69 57 -113 56 -29 -1 -29 -1 -5 7
36 13 50 13 50 0z m56 -145 c9 -34 -18 -64 -44 -48 -22 14 -27 41 -12 59 20
24 49 18 56 -11z"/>
<path d="M1883 7050 c-52 -31 -66 -70 -61 -169 4 -72 10 -96 37 -150 64 -125
174 -211 272 -211 88 0 134 79 110 193 -23 112 -114 265 -191 322 -57 42 -115
47 -167 15z m140 -26 c37 -19 75 -51 88 -76 8 -15 6 -16 -21 -6 -25 8 -40 7
-75 -7 -80 -30 -120 -106 -97 -183 18 -58 5 -50 -25 14 -22 48 -27 74 -27 141
-1 73 2 84 23 107 29 31 84 35 134 10z m73 -145 c2 -4 -7 -6 -22 -3 -14 3 -23
1 -20 -4 3 -5 -5 -15 -18 -22 -13 -7 -29 -23 -36 -36 -7 -13 -17 -21 -21 -18
-4 2 -11 -1 -15 -7 -5 -8 -3 -9 6 -4 10 6 12 4 7 -9 -4 -10 -7 -30 -7 -44 0
-21 -2 -24 -10 -12 -19 29 -9 127 11 114 5 -3 6 3 2 12 -5 14 -3 16 11 11 9
-4 15 -3 11 2 -3 6 3 14 12 20 20 12 82 11 89 0z m42 -81 c15 -15 16 -54 2
-63 -17 -10 -49 5 -55 26 -12 36 27 63 53 37z"/>
<path d="M3066 6993 c-3 -3 20 -28 49 -55 41 -37 55 -57 55 -78 0 -32 -34 -86
-94 -150 -24 -25 -54 -65 -68 -90 -15 -25 -52 -73 -83 -108 -70 -77 -287 -255
-381 -313 -59 -37 -77 -43 -124 -43 l-55 -1 -3 43 c-3 46 -11 51 -34 25 -26
-30 -30 -60 -13 -92 19 -37 66 -49 116 -28 33 14 35 13 89 -28 30 -23 111 -77
179 -119 141 -89 151 -90 230 -32 110 81 199 244 216 397 3 35 13 86 21 113
24 83 14 238 -16 256 -8 5 -1 22 24 54 65 85 66 169 4 210 -31 20 -105 46
-112 39z m63 -320 c0 -10 3 -55 7 -100 4 -53 3 -83 -3 -83 -6 0 -29 17 -53 38
-40 36 -41 38 -29 67 10 25 66 95 75 95 2 0 3 -8 3 -17z m-18 -218 c15 -5 19
-16 19 -54 0 -41 -22 -140 -37 -164 -8 -13 -46 15 -119 91 l-73 75 61 67 60
68 35 -39 c19 -21 43 -41 54 -44z m-158 -149 c42 -38 88 -77 102 -86 l25 -16
-31 -50 c-17 -27 -47 -68 -66 -91 -31 -38 -37 -42 -56 -32 -42 22 -126 100
-178 165 -41 52 -49 68 -38 74 8 5 46 31 84 59 39 27 73 49 76 48 3 -1 40 -33
82 -71z m-252 -100 c13 -19 64 -76 112 -126 96 -101 96 -103 30 -142 -27 -16
-29 -15 -86 20 -176 111 -268 174 -262 180 9 9 168 101 176 101 3 1 17 -14 30
-33z"/>
<path d="M3165 5989 c-106 -164 -179 -225 -280 -237 -54 -6 -79 9 -101 57 -18
42 -34 45 -34 8 1 -40 37 -105 69 -121 93 -48 237 23 321 159 26 41 100 203
100 217 0 22 -20 -1 -75 -83z"/>
<path d="M2320 5995 c0 -5 12 -30 26 -55 14 -25 58 -121 96 -215 86 -207 108
-253 163 -331 99 -139 222 -185 361 -133 74 28 203 103 184 107 -9 1 -65 -14
-125 -33 -267 -88 -367 -25 -525 330 -34 77 -79 174 -100 215 -37 74 -79 135
-80 115z"/>
<path d="M3451 5804 c-17 -33 -66 -113 -110 -179 -43 -66 -77 -122 -74 -125 8
-8 103 101 153 177 43 65 81 166 67 180 -3 3 -19 -21 -36 -53z"/>
<path d="M3182 7958 c-28 -69 -29 -80 -15 -85 15 -5 53 76 53 113 0 39 -16 27
-38 -28z"/>
<path d="M3533 7648 c-18 -22 -48 -117 -39 -125 10 -11 41 33 57 79 13 42 2
71 -18 46z"/>
<path d="M3556 7554 c-3 -9 -11 -12 -18 -8 -7 4 -10 3 -5 -1 4 -5 0 -19 -9
-33 -8 -13 -13 -26 -10 -30 9 -8 76 59 76 75 0 18 -27 16 -34 -3z"/>
<path d="M3703 7352 c-47 -19 -81 -48 -70 -59 4 -3 25 4 47 16 22 12 44 20 49
17 5 -3 22 1 37 9 16 8 37 15 46 15 9 0 20 5 23 10 10 17 -86 10 -132 -8z"/>
<path d="M3750 7308 l-25 -11 25 -7 c14 -5 39 -8 56 -9 17 -1 55 -11 83 -23
74 -30 88 -10 18 26 -61 30 -121 40 -157 24z"/>
<path d="M4039 6796 c-2 -3 -16 -7 -31 -10 -14 -2 -37 -10 -49 -17 l-24 -12
23 -10 c28 -13 92 14 92 38 0 15 -3 18 -11 11z"/>
<path d="M3992 5753 c2 -11 16 -20 33 -24 l30 -6 -35 -4 c-21 -2 -36 -10 -38
-19 -2 -12 11 -15 73 -15 53 0 75 4 75 13 0 6 -8 12 -17 12 -17 1 -16 2 1 11
17 10 16 12 -10 30 -17 11 -47 19 -72 19 -36 0 -43 -3 -40 -17z"/>
<path d="M2601 4938 c-7 -18 -32 -120 -45 -181 -1 -5 -15 5 -31 22 -17 17 -37
31 -45 31 -13 0 -13 2 0 11 13 9 12 10 -2 5 -10 -3 -29 1 -44 9 -24 12 -33 11
-76 -5 -28 -10 -55 -17 -61 -16 -7 1 -8 1 -4 -2 5 -2 -2 -15 -14 -28 -12 -13
-27 -21 -33 -17 -6 3 -8 3 -4 -2 4 -4 1 -20 -7 -36 -27 -51 -16 -51 25 0 41
51 57 64 46 35 -3 -9 -2 -12 5 -9 6 4 8 13 5 21 -5 14 6 21 63 39 14 4 21 3
18 -2 -4 -6 4 -8 19 -5 27 5 68 -24 57 -41 -3 -6 -1 -7 6 -3 15 10 43 -13 34
-27 -3 -5 -1 -7 4 -4 6 4 16 1 22 -7 8 -10 7 -24 -4 -56 -8 -24 -12 -53 -9
-64 6 -19 5 -20 -12 -6 -17 14 -18 14 -6 -2 8 -9 20 -14 28 -11 8 3 14 0 14
-6 0 -6 -5 -11 -11 -11 -5 0 -8 -4 -5 -8 6 -10 -28 -105 -35 -98 -2 2 -5 -7
-6 -21 0 -14 -7 -29 -13 -33 -7 -4 -9 -13 -6 -19 4 -6 3 -11 -3 -11 -6 0 -7
-7 -4 -17 5 -12 3 -14 -7 -8 -8 5 -11 3 -8 -6 5 -14 -18 -90 -45 -151 -9 -18
-25 -63 -37 -100 -12 -38 -26 -68 -32 -68 -6 0 -8 -6 -5 -14 3 -8 0 -22 -7
-31 -10 -14 -33 -18 -114 -21 -67 -3 -102 -1 -102 6 0 5 -7 10 -15 10 -8 0
-17 11 -21 24 -4 18 6 42 45 99 54 78 61 108 36 145 -13 17 -13 26 -4 43 9 17
8 20 -2 14 -9 -6 -11 -3 -6 9 4 10 3 15 -4 11 -5 -4 -7 -16 -3 -27 5 -17 3
-20 -10 -15 -11 4 -23 -6 -42 -38 -48 -82 -125 -133 -264 -176 -80 -24 -212
-31 -260 -12 -66 25 -86 -20 -43 -99 64 -119 218 -235 363 -273 72 -19 271
-17 323 4 33 13 33 9 5 -64 -25 -67 -22 -73 62 -101 l55 -19 -152 -3 -152 -3
-10 -37 c-6 -20 -47 -188 -91 -372 -45 -184 -84 -342 -87 -350 -3 -8 -17 41
-30 110 -13 69 -39 205 -58 303 -19 97 -35 186 -35 197 0 19 -7 20 -158 20
l-159 0 25 -125 24 -126 -47 -195 c-26 -107 -48 -194 -50 -192 -2 2 -33 161
-69 353 -37 193 -70 364 -74 380 l-8 30 -152 3 c-84 1 -152 -1 -152 -6 0 -5
52 -283 115 -618 64 -335 121 -639 127 -677 l11 -67 185 2 186 3 32 125 c17
69 34 118 37 110 3 -8 10 -44 17 -80 6 -36 16 -86 22 -112 l10 -48 182 0 182
0 77 313 c42 171 118 479 168 682 50 204 92 371 93 373 2 1 45 -14 97 -33 52
-19 103 -35 115 -35 17 0 30 20 69 108 43 97 95 235 95 252 0 4 -12 12 -26 19
-33 15 -26 25 9 12 25 -10 26 -9 37 47 6 31 13 67 16 80 6 28 -14 29 -49 2
-30 -24 -48 -25 -150 -5 -43 8 -108 15 -144 15 -48 0 -64 3 -61 13 3 6 13 37
23 67 l19 55 9 -35 c16 -62 41 -80 111 -78 34 1 75 -4 92 -11 39 -18 71 -9
122 31 34 28 43 44 59 106 18 65 18 72 4 72 -9 0 -33 11 -53 25 -47 32 -60 31
-127 -6 -48 -27 -61 -31 -105 -25 -30 3 -55 1 -63 -6 -7 -6 -15 -9 -18 -7 -4
5 103 300 112 309 3 3 3 -15 0 -39 -3 -24 -3 -50 0 -57 6 -17 39 -18 50 -1 19
31 43 115 43 155 l0 44 -36 -21 c-30 -18 -35 -19 -30 -6 3 9 6 20 6 25 0 5 10
10 22 12 15 2 32 21 53 58 24 42 38 56 60 61 56 12 116 9 153 -8 l37 -16 -42
-7 c-50 -7 -43 -1 -82 -71 -41 -73 -41 -120 -1 -166 17 -18 30 -42 30 -53 0
-11 9 -24 20 -30 40 -22 56 -4 104 115 38 96 44 119 36 141 -32 83 -91 119
-192 116 -38 -1 -68 1 -68 4 0 3 16 39 35 80 48 101 47 108 -20 133 -72 27
-93 27 -104 -1z m-1367 -1923 c43 -231 79 -421 80 -422 0 -1 12 -4 26 -8 l26
-6 66 270 66 270 -19 88 c-10 48 -18 94 -19 101 0 9 26 12 99 12 l99 0 41
-217 c75 -390 92 -478 97 -495 5 -17 41 -35 50 -25 5 4 114 441 170 677 13 58
29 122 35 143 l10 37 99 0 c55 0 100 -2 100 -5 0 -6 -60 -253 -222 -910 -44
-181 -86 -333 -92 -338 -6 -4 -69 -6 -141 -5 l-130 3 -34 173 c-33 171 -34
172 -60 172 -25 0 -27 -4 -60 -141 -18 -78 -37 -156 -43 -175 l-9 -34 -139 0
-139 0 -10 53 c-6 28 -47 246 -92 482 -44 237 -93 497 -108 578 l-28 148 101
-3 101 -3 79 -420z"/>
<path d="M2746 4824 c-4 -9 -4 -19 -1 -22 3 -3 5 0 5 6 0 6 8 9 18 6 10 -4 13
-2 7 3 -5 4 -13 12 -16 16 -4 4 -9 0 -13 -9z"/>
<path d="M2887 4709 c7 -7 15 -10 18 -7 3 3 -2 9 -12 12 -14 6 -15 5 -6 -5z"/>
<path d="M4707 4628 c-35 -39 -37 -43 -21 -55 34 -25 55 -11 88 56 20 43 20
41 -7 41 -14 0 -37 -16 -60 -42z"/>
<path d="M2415 4379 c-4 -6 -5 -12 -2 -15 2 -3 7 2 10 11 7 17 1 20 -8 4z"/>
<path d="M2643 4348 c-9 -15 27 -58 47 -58 26 0 100 23 100 31 0 4 -7 13 -16
20 -18 15 -122 20 -131 7z"/>
<path d="M4365 4219 c-4 -6 -5 -12 -2 -15 2 -3 7 2 10 11 7 17 1 20 -8 4z"/>
<path d="M4680 4125 c-7 -9 -11 -17 -9 -20 3 -2 10 5 17 15 14 24 10 26 -8 5z"/>
<path d="M4545 3970 c3 -5 8 -10 11 -10 2 0 4 5 4 10 0 6 -5 10 -11 10 -5 0
-7 -4 -4 -10z"/>
<path d="M2616 3193 c-43 -170 -119 -474 -170 -678 -52 -203 -92 -371 -91
-373 1 -2 72 -3 156 -3 l154 -1 32 124 c18 67 32 127 32 131 1 9 205 7 219 -2
5 -3 20 -61 33 -129 l24 -123 153 -2 c109 -1 152 1 152 10 0 6 -18 103 -39
215 -81 414 -131 679 -171 888 -22 118 -43 223 -46 233 -5 15 -23 17 -183 17
l-179 0 -76 -307z m394 249 c0 -9 227 -1195 235 -1229 5 -23 4 -23 -94 -23
-86 0 -100 2 -105 18 -5 17 -46 229 -46 238 0 2 -71 3 -157 2 l-157 -3 -30
-127 -30 -128 -104 0 c-79 0 -103 3 -100 13 3 6 74 290 159 630 l154 617 137
0 c76 0 138 -4 138 -8z"/>
<path d="M2836 3032 c-10 -17 -97 -375 -92 -380 3 -3 52 -5 108 -4 101 1 103
2 100 24 -9 82 -66 354 -76 360 -15 10 -34 10 -40 0z m38 -223 c9 -47 16 -91
16 -97 0 -13 -80 -17 -80 -4 0 11 44 192 46 189 1 -1 9 -41 18 -88z"/>
<path d="M3340 2822 c0 -373 2 -681 4 -683 2 -2 171 -3 375 -1 l371 2 0 150 0
150 -220 0 -220 0 0 530 0 530 -155 0 -155 0 0 -678z m250 98 l0 -530 223 -2
222 -3 0 -95 0 -95 -322 -3 -323 -2 0 623 c0 343 3 627 7 630 3 4 48 7 100 7
l93 0 0 -530z"/>
<path d="M1090 1270 l0 -680 353 -2 c193 -2 362 -2 375 0 22 3 22 5 22 153 l0
149 -220 0 -220 0 0 130 0 130 140 0 140 0 1 128 c0 70 2 137 3 150 3 22 2 22
-141 22 l-144 0 3 98 3 97 195 2 c107 1 205 3 218 3 22 0 22 1 22 150 l0 150
-375 0 -375 0 0 -680z m698 528 l3 -98 -221 0 -220 0 0 -150 0 -150 140 0 141
0 -3 -97 -3 -98 -138 0 -137 0 0 -177 c0 -98 -1 -181 -2 -184 -2 -3 96 -6 217
-7 l220 -2 3 -97 3 -98 -321 0 -320 0 0 629 0 630 318 -2 317 -2 3 -97z"/>
<path d="M2200 1929 c0 -11 -72 -307 -160 -657 -88 -350 -161 -647 -162 -660
l-3 -24 155 0 154 0 26 103 c15 57 30 116 33 132 l7 27 110 -1 c104 -1 110 -2
115 -22 2 -12 13 -69 25 -126 11 -58 22 -106 24 -108 2 -2 71 -4 152 -4 l149
0 -2 23 c-1 22 -238 1268 -250 1316 -5 22 -7 22 -189 22 -179 0 -184 -1 -184
-21z m443 -647 c65 -339 117 -623 117 -630 0 -10 -23 -12 -97 -10 l-98 3 -24
128 -25 127 -156 0 -155 0 -30 -127 -30 -128 -102 -3 c-57 -1 -103 0 -103 3 0
3 70 286 156 630 l156 625 137 0 136 0 118 -618z"/>
<path d="M2306 1306 c-25 -102 -46 -192 -46 -199 0 -10 19 -12 83 -10 45 1 94
3 108 3 l26 0 -14 73 c-8 39 -24 126 -37 192 -21 114 -23 120 -48 123 -25 3
-26 0 -72 -182z m88 -57 c9 -47 16 -89 16 -92 0 -4 -20 -7 -44 -7 l-44 0 15
58 c30 119 34 134 38 131 2 -2 10 -43 19 -90z"/>
<path d="M3028 1943 l-168 -3 0 -150 0 -150 168 -2 167 -3 2 -525 2 -525 151
-3 150 -3 0 530 0 531 166 2 166 3 2 148 c0 92 -3 147 -9 147 -5 0 -149 1
-320 3 -170 2 -385 2 -477 0z m752 -148 l0 -95 -167 -2 -168 -3 -3 -532 -2
-533 -95 0 -95 0 -2 533 -3 532 -167 3 -168 2 0 95 0 95 435 0 435 0 0 -95z"/>
<path d="M4157 1939 c-98 -23 -201 -110 -253 -215 -27 -55 -29 -67 -29 -174 0
-108 2 -119 31 -180 34 -71 97 -141 154 -170 56 -29 151 -50 222 -50 90 0 100
-10 106 -102 5 -86 -4 -110 -51 -138 -29 -18 -52 -20 -234 -20 l-203 0 0 -155
0 -155 188 0 c298 0 375 22 493 140 82 81 99 125 106 273 11 219 -48 347 -192
418 -53 26 -81 33 -167 39 -124 9 -134 13 -147 52 -16 44 -14 69 9 106 l20 32
220 0 220 0 0 155 0 155 -227 -1 c-126 -1 -245 -5 -266 -10z m443 -143 l0 -95
-199 -3 c-197 -3 -200 -3 -226 -28 -55 -51 -70 -124 -41 -195 22 -52 52 -65
173 -77 133 -12 189 -34 246 -98 61 -68 80 -129 81 -264 2 -167 -29 -242 -127
-316 -89 -67 -147 -81 -364 -87 l-193 -6 0 102 0 101 155 0 c187 0 240 10 292
54 38 34 38 34 42 121 4 108 -10 160 -47 179 -15 7 -68 16 -119 19 -189 13
-297 92 -339 249 -38 145 8 285 127 380 64 52 95 57 327 58 l212 0 0 -94z"/>
</g>
</svg>
