<?xml version="1.0" standalone="no"?>
<!DOCTYPE svg PUBLIC "-//W3C//DTD SVG 20010904//EN"
 "http://www.w3.org/TR/2001/REC-SVG-20010904/DTD/svg10.dtd">
<svg version="1.0" xmlns="http://www.w3.org/2000/svg"
 width="720.000000pt" height="703.000000pt" viewBox="0 0 720.000000 703.000000"
 preserveAspectRatio="xMidYMid meet">

<g transform="translate(0.000000,703.000000) scale(0.100000,-0.100000)"
fill="#000000" stroke="none">
<path d="M6091 5004 c-1 -7 -10 -14 -21 -17 -14 -4 -20 -14 -20 -35 0 -17 -4
-34 -10 -37 -5 -3 -10 -12 -10 -20 0 -8 -5 -26 -12 -42 -6 -15 -11 -31 -10
-35 1 -5 -3 -8 -8 -8 -6 0 -10 -6 -9 -12 1 -7 0 -20 -3 -28 -3 -8 -11 -34 -18
-58 -8 -33 -15 -42 -27 -38 -11 5 -14 2 -9 -10 3 -8 -1 -48 -9 -87 -16 -79
-19 -127 -7 -127 11 0 185 537 179 552 -3 8 -6 9 -6 2z"/>
<path d="M992 4965 c0 -16 2 -22 5 -12 2 9 2 23 0 30 -3 6 -5 -1 -5 -18z"/>
<path d="M2482 4930 c0 -14 2 -19 5 -12 2 6 2 18 0 25 -3 6 -5 1 -5 -13z"/>
<path d="M1011 4898 c0 -9 -4 -25 -7 -35 -5 -17 -5 -17 6 0 6 10 9 25 7 35 -4
15 -5 15 -6 0z"/>
<path d="M2472 4860 c0 -19 2 -27 5 -17 2 9 2 25 0 35 -3 9 -5 1 -5 -18z"/>
<path d="M2462 4760 c0 -19 2 -27 5 -17 2 9 2 25 0 35 -3 9 -5 1 -5 -18z"/>
<path d="M3541 4774 c-1 -6 -20 -24 -43 -39 -23 -15 -53 -38 -67 -51 -35 -32
-106 -48 -170 -36 -57 10 -151 68 -151 92 0 13 -1 13 -10 0 -6 -10 -10 -11
-10 -2 0 6 -7 12 -15 12 -8 0 -15 5 -15 12 0 6 -3 9 -6 6 -3 -3 -1 -23 5 -45
23 -83 151 -173 248 -173 58 0 149 46 189 96 33 42 59 106 51 127 -4 7 -6 8
-6 1z"/>
<path d="M1023 4725 c0 -22 2 -30 4 -17 2 12 2 30 0 40 -3 9 -5 -1 -4 -23z"/>
<path d="M2452 4685 c0 -16 2 -22 5 -12 2 9 2 23 0 30 -3 6 -5 -1 -5 -18z"/>
<path d="M1033 4635 c0 -22 2 -30 4 -17 2 12 2 30 0 40 -3 9 -5 -1 -4 -23z"/>
<path d="M2443 4610 c0 -25 2 -35 4 -22 2 12 2 32 0 45 -2 12 -4 2 -4 -23z"/>
<path d="M1043 4555 c0 -22 2 -30 4 -17 2 12 2 30 0 40 -3 9 -5 -1 -4 -23z"/>
<path d="M2421 4455 c-6 -55 -14 -115 -16 -132 -2 -18 0 -33 6 -33 5 0 9 17 9
38 0 22 5 75 11 120 6 45 9 87 7 94 -3 7 -10 -32 -17 -87z"/>
<path d="M1052 4490 c0 -14 2 -19 5 -12 2 6 2 18 0 25 -3 6 -5 1 -5 -13z"/>
<path d="M1063 4405 c0 -33 2 -45 4 -27 2 18 2 45 0 60 -2 15 -4 0 -4 -33z"/>
<path d="M1073 4300 c0 -25 2 -35 4 -22 2 12 2 32 0 45 -2 12 -4 2 -4 -23z"/>
<path d="M1752 4310 c0 -14 2 -19 5 -12 2 6 2 18 0 25 -3 6 -5 1 -5 -13z"/>
<path d="M1712 4290 c0 -19 2 -27 5 -17 2 9 2 25 0 35 -3 9 -5 1 -5 -18z"/>
<path d="M2402 4235 c0 -16 2 -22 5 -12 2 9 2 23 0 30 -3 6 -5 -1 -5 -18z"/>
<path d="M1087 4180 c3 -41 7 -77 9 -79 7 -8 3 74 -6 114 -6 30 -7 21 -3 -35z"/>
<path d="M1762 4230 c0 -14 2 -19 5 -12 2 6 2 18 0 25 -3 6 -5 1 -5 -13z"/>
<path d="M1702 4215 c0 -16 2 -22 5 -12 2 9 2 23 0 30 -3 6 -5 -1 -5 -18z"/>
<path d="M5620 4201 c0 -6 4 -13 10 -16 6 -3 7 1 4 9 -7 18 -14 21 -14 7z"/>
<path d="M1774 4160 c4 -25 13 -94 21 -155 20 -158 56 -370 66 -386 6 -11 56
-15 235 -17 124 -2 230 0 235 5 5 5 11 42 13 83 3 41 2 62 -2 45 -6 -26 -13
-31 -52 -37 -68 -9 -379 -8 -386 3 -3 5 -13 9 -24 9 -11 0 -22 12 -29 33 -12
31 -31 148 -37 217 -4 57 -35 234 -41 240 -3 3 -3 -15 1 -40z"/>
<path d="M2392 4160 c0 -19 2 -27 5 -17 2 9 2 25 0 35 -3 9 -5 1 -5 -18z"/>
<path d="M5642 4150 c0 -14 4 -36 8 -50 6 -20 8 -21 8 -5 0 11 -4 34 -8 50 -7
27 -8 27 -8 5z"/>
<path d="M1686 4108 c-3 -13 -5 -36 -5 -53 1 -21 4 -15 10 20 8 52 6 72 -5 33z"/>
<path d="M2378 4080 c-4 -25 -9 -85 -12 -135 l-5 -90 15 115 c13 111 15 201 2
110z"/>
<path d="M1100 4055 c0 -19 4 -35 8 -35 4 0 6 16 4 35 -2 19 -6 35 -8 35 -2 0
-4 -16 -4 -35z"/>
<path d="M5661 4060 c-1 -8 20 -102 46 -207 43 -174 50 -193 69 -193 25 0 66
-39 43 -41 -51 -5 99 -18 210 -18 123 -1 133 0 126 17 -4 9 -10 25 -12 35 -3
10 -13 17 -22 15 -9 -1 -23 2 -31 7 -8 5 -71 12 -140 16 -142 7 -200 23 -189
52 0 1 -7 21 -16 45 -10 24 -18 63 -19 86 0 24 -4 42 -7 40 -4 -2 -16 29 -28
69 -30 95 -29 94 -30 77z"/>
<path d="M2805 4035 c-16 -9 -37 -24 -47 -35 -9 -11 -19 -20 -23 -20 -24 0
-67 -91 -67 -143 1 -15 -4 -25 -9 -22 -5 4 -9 1 -9 -4 0 -6 5 -11 10 -11 6 0
10 -11 10 -25 0 -31 15 -33 16 -2 3 56 26 98 81 148 49 45 124 91 139 85 7 -3
14 -1 14 3 0 5 -7 12 -16 15 -8 3 -13 9 -10 14 9 15 -59 12 -89 -3z"/>
<path d="M1657 3922 c-9 -53 -21 -124 -25 -156 -6 -52 -10 -60 -32 -65 -26 -6
-352 -7 -408 -1 -39 4 -40 5 -47 61 -13 100 -23 153 -24 130 -1 -22 7 -102 25
-249 l5 -42 237 2 237 3 8 60 c4 33 17 124 29 203 11 78 19 144 17 147 -2 2
-12 -40 -22 -93z"/>
<path d="M1112 3960 c0 -19 2 -27 5 -17 2 9 2 25 0 35 -3 9 -5 1 -5 -18z"/>
<path d="M2900 3979 c0 -5 5 -7 10 -4 6 3 10 8 10 11 0 2 -4 4 -10 4 -5 0 -10
-5 -10 -11z"/>
<path d="M3393 3910 c-4 -16 -8 -18 -14 -8 -7 10 -9 8 -10 -7 -9 -161 -3 -177
21 -62 9 39 20 72 25 74 6 1 34 -40 63 -93 67 -119 113 -157 405 -333 97 -59
128 -62 174 -19 33 31 30 55 -8 63 -17 4 -33 5 -35 2 -12 -12 -93 17 -156 56
-38 23 -77 47 -86 52 -10 6 -32 20 -49 33 -17 12 -34 22 -38 22 -4 0 -23 14
-42 30 -19 17 -39 28 -44 24 -5 -3 -8 -1 -7 4 2 5 -14 28 -34 50 -21 23 -38
48 -38 57 0 9 -5 13 -11 10 -6 -4 -9 0 -7 10 3 19 -40 48 -80 53 -17 3 -25 -2
-29 -18z"/>
<path d="M5731 3874 c0 -11 3 -14 6 -6 3 7 2 16 -1 19 -3 4 -6 -2 -5 -13z"/>
<path d="M2352 3810 c0 -14 2 -19 5 -12 2 6 2 18 0 25 -3 6 -5 1 -5 -13z"/>
<path d="M2662 3720 c0 -14 2 -19 5 -12 2 6 2 18 0 25 -3 6 -5 1 -5 -13z"/>
<path d="M3352 3719 c-7 -11 -9 -25 -5 -32 4 -7 10 0 15 18 9 36 6 40 -10 14z"/>
<path d="M4261 3662 c-1 -33 3 -51 9 -47 6 3 10 1 10 -5 0 -8 82 -10 285 -8
318 3 305 0 304 73 0 22 -3 34 -6 28 -3 -10 -73 -13 -298 -13 -225 0 -295 3
-298 13 -3 6 -6 -12 -6 -41z"/>
<path d="M5221 3658 l-1 -58 171 0 c162 0 171 1 176 20 3 11 12 20 19 20 10 0
14 12 13 38 0 20 -3 31 -6 25 -3 -10 -50 -13 -183 -13 -133 0 -180 3 -183 13
-3 6 -6 -14 -6 -45z"/>
<path d="M3337 3650 c3 -11 7 -20 9 -20 2 0 4 9 4 20 0 11 -4 20 -9 20 -5 0
-7 -9 -4 -20z"/>
<path d="M3327 3603 c-4 -3 -7 -11 -7 -17 0 -6 5 -5 12 2 6 6 9 14 7 17 -3 3
-9 2 -12 -2z"/>
<path d="M3310 3544 c0 -8 5 -12 10 -9 6 3 10 10 10 16 0 5 -4 9 -10 9 -5 0
-10 -7 -10 -16z"/>
<path d="M2602 3468 c-7 -7 -49 -15 -95 -18 -73 -4 -82 -7 -85 -26 -7 -47 93
-81 158 -54 34 14 61 60 53 90 -6 23 -14 25 -31 8z"/>
<path d="M5728 3386 c-16 -7 -39 -27 -53 -46 -21 -28 -25 -42 -20 -70 9 -51
19 -55 35 -12 7 20 20 42 29 49 41 32 101 -2 101 -57 0 -45 18 -36 25 13 7 44
-4 85 -27 104 -28 23 -62 30 -90 19z"/>
<path d="M2058 3338 c-3 -7 -35 -13 -84 -15 -117 -5 -141 -11 -164 -40 -11
-14 -20 -22 -20 -17 0 5 -4 3 -9 -5 -6 -9 -6 -24 0 -38 5 -14 9 -36 9 -49 0
-15 4 -23 11 -19 5 4 9 17 8 28 -4 54 -8 52 131 51 l130 -1 0 58 c0 57 -4 72
-12 47z"/>
<path d="M4160 3297 l0 -57 115 0 115 0 0 -47 c0 -50 9 -49 30 5 11 28 10 37
-5 66 -26 47 -71 66 -158 66 -44 0 -78 5 -85 12 -9 9 -12 -1 -12 -45z"/>
<path d="M5000 3340 c0 -6 -34 -10 -81 -10 -87 0 -135 -15 -157 -50 -10 -16
-10 -20 0 -21 7 0 6 -3 -3 -7 -15 -6 -15 -11 1 -62 l18 -55 1 53 1 52 115 0
115 0 0 55 c0 30 -2 55 -5 55 -3 0 -5 -4 -5 -10z"/>
<path d="M1423 3230 c0 -25 2 -35 4 -22 2 12 2 32 0 45 -2 12 -4 2 -4 -23z"/>
<path d="M5821 3148 l-1 -58 180 0 180 0 0 53 c0 30 -4 47 -8 39 -13 -20 -334
-13 -344 8 -4 8 -7 -11 -7 -42z"/>
<path d="M3037 3141 c-16 -16 -25 -34 -22 -43 3 -8 1 -27 -4 -41 -7 -17 -7
-27 -1 -27 6 0 10 -8 10 -17 0 -15 2 -16 10 -3 5 9 5 17 -1 21 -6 3 -4 11 6
19 8 7 13 20 10 29 -3 10 1 25 9 36 13 17 16 16 57 -30 24 -26 82 -87 129
-135 159 -162 202 -216 216 -272 1 -5 3 -11 4 -15 1 -5 2 -12 1 -17 -1 -4 3
-14 9 -21 6 -7 12 -29 14 -49 5 -59 15 -53 13 7 -1 30 -6 53 -11 50 -5 -4 -6
6 -2 21 4 18 2 26 -6 26 -10 0 -10 2 -1 8 16 10 10 37 -25 112 -19 39 -59 85
-179 209 -46 46 -83 88 -83 91 0 15 -71 62 -98 65 -19 2 -35 -5 -55 -24z"/>
<path d="M5333 3031 c8 -71 49 -152 99 -201 22 -21 104 -81 182 -134 179 -121
214 -153 222 -206 8 -49 21 -52 30 -5 18 95 -28 152 -231 289 -71 49 -147 106
-168 127 -21 21 -43 39 -48 39 -5 0 -9 5 -9 11 0 19 -48 70 -53 56 -4 -8 -6
-7 -7 3 -1 8 -3 25 -4 37 -2 13 -6 26 -11 30 -4 5 -5 -16 -2 -46z"/>
<path d="M3008 2967 c-3 -19 -2 -25 4 -19 6 6 8 18 6 28 -3 14 -5 12 -10 -9z"/>
<path d="M3001 2914 c0 -11 3 -14 6 -6 3 7 2 16 -1 19 -3 4 -6 -2 -5 -13z"/>
<path d="M2992 2870 c0 -14 2 -19 5 -12 2 6 2 18 0 25 -3 6 -5 1 -5 -13z"/>
<path d="M2971 2819 c-5 -13 -7 -27 -4 -32 2 -4 -3 -10 -11 -13 -9 -3 -16 -11
-16 -17 0 -6 -9 -20 -19 -31 -19 -21 -46 -66 -84 -141 -11 -22 -29 -50 -39
-61 -11 -12 -20 -31 -21 -42 0 -11 -4 -19 -8 -17 -3 3 -12 -8 -20 -23 -8 -15
-22 -36 -31 -46 -10 -11 -18 -25 -18 -32 0 -6 -7 -17 -15 -24 -8 -7 -15 -22
-15 -34 0 -17 -2 -18 -10 -6 -9 13 -10 13 -10 0 0 -9 -21 -48 -47 -88 -38 -59
-54 -75 -89 -88 -43 -16 -106 -13 -129 6 -6 5 -22 11 -35 14 -14 3 -35 7 -47
10 -20 4 -21 2 -11 -24 23 -67 120 -118 196 -104 62 11 88 31 131 98 23 36 41
68 41 71 0 3 5 11 10 18 6 7 23 32 39 57 15 25 50 81 78 125 27 44 53 87 56
95 4 8 20 38 37 65 48 81 91 177 95 210 1 16 6 38 10 48 4 10 5 21 1 24 -3 3
-10 -5 -15 -18z m-69 -151 c-7 -7 -12 -8 -12 -2 0 6 3 14 7 17 3 4 9 5 12 2 2
-3 -1 -11 -7 -17z"/>
<path d="M1945 2750 c-91 -6 -147 -25 -158 -54 -3 -8 -1 -17 6 -20 7 -3 6 -5
-3 -5 -12 -1 -15 -10 -12 -36 2 -19 8 -35 12 -35 5 0 11 -12 13 -27 2 -16 5
-2 6 29 l1 57 122 3 123 3 -3 40 c-2 22 -7 42 -10 45 -4 3 -47 3 -97 0z"/>
<path d="M3497 2506 c-3 -8 0 -19 7 -25 10 -9 12 -6 8 14 -5 29 -8 31 -15 11z"/>
<path d="M5851 2394 c0 -11 3 -14 6 -6 3 7 2 16 -1 19 -3 4 -6 -2 -5 -13z"/>
<path d="M5346 2335 c13 -143 56 -217 162 -273 236 -126 613 -50 677 136 8 26
17 79 19 117 2 39 1 50 -1 25 -2 -25 -8 -49 -14 -54 -5 -6 -9 -18 -9 -29 0
-10 -4 -16 -8 -13 -5 3 -18 -5 -29 -17 -61 -65 -122 -100 -215 -122 -78 -18
-215 -19 -288 -1 -68 17 -167 63 -174 82 -3 8 -13 14 -22 14 -11 0 -14 5 -10
17 4 10 4 15 1 11 -8 -7 -45 27 -45 42 0 5 -6 13 -14 17 -7 4 -18 31 -24 58
l-11 50 5 -60z"/>
<path d="M3551 2204 c0 -11 3 -14 6 -6 3 7 2 16 -1 19 -3 4 -6 -2 -5 -13z"/>
<path d="M3564 2148 c7 -60 28 -91 76 -115 59 -30 114 -29 178 3 53 26 75 52
77 90 0 20 -2 20 -40 8 -22 -6 -53 -17 -68 -23 -43 -17 -97 -13 -147 11 -25
12 -49 22 -54 22 -5 1 -13 10 -18 21 -6 14 -7 10 -4 -17z"/>
<path d="M4770 2135 c0 -8 -4 -15 -10 -15 -107 -3 -343 1 -350 5 -6 4 -10 -6
-11 -22 0 -15 -2 -38 -5 -50 l-4 -23 195 0 195 0 0 60 c0 33 -2 60 -5 60 -3 0
-5 -7 -5 -15z"/>
<path d="M1420 2068 l0 -48 341 0 340 0 -3 45 -3 45 -338 3 -337 2 0 -47z"/>
</g>
</svg>
